<?xml version="1.0" encoding="UTF-8" standalone="no"?>
<!-- Created with Inkscape (http://www.inkscape.org/) -->

<svg
   version="1.1"
   id="svg55"
   width="50"
   height="50.000042"
   viewBox="0 0 50 50.000042"
   sodipodi:docname="garlic-day.svg"
   inkscape:version="1.1 (c4e8f9ed74, 2021-05-24)"
   xmlns:inkscape="http://www.inkscape.org/namespaces/inkscape"
   xmlns:sodipodi="http://sodipodi.sourceforge.net/DTD/sodipodi-0.dtd"
   xmlns="http://www.w3.org/2000/svg"
   xmlns:svg="http://www.w3.org/2000/svg">
  <defs
     id="defs59" />
  <sodipodi:namedview
     id="namedview57"
     pagecolor="#ffffff"
     bordercolor="#666666"
     borderopacity="1.0"
     inkscape:pageshadow="2"
     inkscape:pageopacity="0.0"
     inkscape:pagecheckerboard="0"
     showgrid="false"
     inkscape:zoom="1.4318912"
     inkscape:cx="-19.554558"
     inkscape:cy="177.38778"
     inkscape:window-width="1920"
     inkscape:window-height="1023"
     inkscape:window-x="1920"
     inkscape:window-y="29"
     inkscape:window-maximized="1"
     inkscape:current-layer="g61"
     fit-margin-top="0"
     fit-margin-left="0"
     fit-margin-right="0"
     fit-margin-bottom="0" />
  <g
     inkscape:groupmode="layer"
     inkscape:label="Image"
     id="g61"
     transform="translate(-7.7171185,-3.1710273)">
    <path
       style="fill:#000000;stroke-width:0.0416889"
       d="M 25.06053,53.072695 C 23.561486,52.656891 21.956924,51.835671 20.778678,50.88123 20.470465,50.631561 20.468422,50.630689 19.75186,50.442661 13.914667,48.911004 10.215135,46.518841 8.5694873,43.212009 7.9378357,41.942736 7.6768019,40.71827 7.7221208,39.237117 c 0.048387,-1.581405 0.46982,-3.090448 1.3088879,-4.686795 2.4087803,-4.582759 7.6500273,-8.532748 13.2351523,-9.974479 0.640304,-0.165287 1.367745,-0.319382 1.507711,-0.319382 0.214111,0 1.723371,-1.761401 2.767193,-3.229489 2.643676,-3.718205 4.64931,-8.476978 5.751747,-13.6471912 0.208808,-0.9792744 0.3181,-1.2646571 0.612131,-1.5984031 0.201855,-0.2291228 0.443047,-0.3788502 0.800858,-0.497162 0.211637,-0.069979 0.373319,-0.086477 0.881483,-0.089953 l 0.622307,-0.00425 0.220182,-0.6585062 c 0.244235,-0.7304384 0.362285,-0.963596 0.566353,-1.1185926 0.30955,-0.2351109 0.343872,-0.2418866 1.225235,-0.2418866 h 0.820665 l 0.269892,0.1327538 c 0.562837,0.2768432 0.887288,0.7038983 0.887288,1.1678913 0,0.1830026 -0.04605,0.3694555 -0.187681,0.7598225 -0.103225,0.2845221 -0.187682,0.5353408 -0.187682,0.5573711 0,0.022034 0.04223,0.050908 0.09384,0.064172 0.186912,0.048024 0.741333,0.4062788 0.962274,0.6217997 0.124346,0.1212927 0.267237,0.3011356 0.317539,0.3996507 0.105793,0.2071887 0.09376,0.3030633 -0.128815,1.0261774 -0.339269,1.1022522 -0.841023,2.1174982 -2.183025,4.4171072 -1.429015,2.448712 -1.96763,3.858056 -2.05837,5.385952 -0.0769,1.294795 0.175902,2.50338 0.772054,3.691042 0.267999,0.533912 0.453703,0.788749 0.916262,1.257368 0.430537,0.436177 0.903681,0.813613 1.621043,1.293136 1.21211,0.810239 2.608172,1.538969 5.984954,3.124083 5.115892,2.401479 6.23292,3.069162 7.982162,4.771195 2.111796,2.054798 3.706588,4.694211 4.34118,7.184737 0.240433,0.9436 0.272176,1.222322 0.272176,2.389929 0,0.904659 -0.01253,1.120864 -0.08592,1.482388 -0.514704,2.535643 -2.375526,4.334722 -5.398556,5.219435 -0.465447,0.136217 -1.706407,0.39799 -2.15668,0.454942 -0.165425,0.02092 -0.240144,0.06441 -0.473176,0.275409 -1.759296,1.592965 -3.94368,2.717634 -6.253733,3.219856 -2.433842,0.529127 -5.386104,0.428305 -8.299696,-0.283444 l -0.41707,-0.101882 -0.437924,0.239989 c -0.820132,0.449454 -1.670608,0.805443 -2.617836,1.095765 l -0.447629,0.137195 -2.85693,0.0081 -2.856932,0.0081 z m 4.731386,-0.0622 c 1.466372,-0.218472 2.924366,-0.729498 4.240699,-1.486361 0.470882,-0.270748 1.138102,-0.971071 1.663768,-1.746312 0.501678,-0.739861 0.847561,-1.502537 1.058202,-2.333345 0.21494,-0.847768 0.251485,-1.177286 0.249359,-2.248436 -0.0022,-1.105644 -0.04155,-1.452723 -0.41105,-3.625361 -0.412089,-2.423035 -0.520591,-3.231949 -0.521297,-3.886436 -4e-4,-0.348482 -0.01226,-0.407332 -0.12207,-0.604226 -0.100271,-0.179799 -0.1304,-0.302368 -0.171423,-0.697354 -0.07161,-0.6895 -0.377828,-1.897495 -0.584439,-2.305553 -0.174602,-0.344837 -0.192176,-0.438195 -0.120927,-0.642402 0.03945,-0.113082 0.01687,-0.189891 -0.209052,-0.711079 -1.033495,-2.384164 -1.652696,-5.307337 -1.961267,-9.258917 -0.08176,-1.046996 -0.223089,-3.41642 -0.277675,-4.655224 -0.03117,-0.707397 -0.01593,-0.761983 0.212786,-0.761983 0.244335,0 0.258061,0.0487 0.311235,1.104276 0.202933,4.028476 0.350389,5.769446 0.652939,7.709102 0.291899,1.871367 0.516208,2.832031 1.026501,4.396271 0.242102,0.742136 0.729144,1.871027 0.872838,2.023113 0.180623,0.19117 0.472336,0.791114 0.556187,1.14387 0.04086,0.171892 0.125799,0.509422 0.188754,0.750071 0.06295,0.240649 0.147668,0.724222 0.188252,1.074607 0.07081,0.611321 0.07077,0.643749 -9e-4,0.802471 -0.06485,0.143686 -0.07123,0.240624 -0.04856,0.738073 0.03073,0.674424 0.116479,1.300911 0.429162,3.135422 0.488787,2.867701 0.52796,3.189108 0.528194,4.333765 2e-4,0.94195 -0.05276,1.393005 -0.258823,2.204723 -0.336258,1.324569 -0.920691,2.376661 -1.97623,3.557596 -0.159415,0.178355 -0.282625,0.330257 -0.2738,0.337564 0.02867,0.02373 0.570902,0.150218 1.091903,0.254704 2.449113,0.491158 4.832718,0.542644 6.819878,0.147318 0.63148,-0.125625 1.40962,-0.338153 1.88456,-0.514717 0.64134,-0.238424 0.791838,-0.303846 1.411488,-0.613577 0.995666,-0.497682 2.076815,-1.237543 2.939674,-2.011701 0.35906,-0.322151 0.492326,-0.544023 0.838896,-1.396639 0.619202,-1.523352 0.857777,-2.677001 0.857113,-4.144706 0,-0.417098 -0.01908,-0.927124 -0.04198,-1.133394 -0.189033,-1.702585 -0.90749,-3.573865 -2.055879,-5.354702 -1.399591,-2.170375 -3.254076,-4.23223 -6.952212,-7.729604 -1.484517,-1.40393 -2.318809,-2.208332 -3.359775,-3.23942 -0.761209,-0.753988 -0.943589,-0.914177 -1.057161,-0.928538 -0.07549,-0.0095 -0.196253,-0.05178 -0.268367,-0.09386 -0.125804,-0.07341 -0.564859,-0.55116 -0.836483,-0.910204 -0.07123,-0.09416 -0.234321,-0.300431 -0.362417,-0.458379 -0.542271,-0.668645 -0.678871,-0.962765 -1.101052,-2.370721 -0.257715,-0.859469 -0.427558,-1.891482 -0.442338,-2.687768 -0.0083,-0.448817 0.07811,-1.24501 0.147028,-1.354301 0.02891,-0.04584 0.06573,-0.276668 0.08184,-0.512957 0.01611,-0.236288 0.07578,-0.695709 0.132619,-1.020934 0.347251,-1.987047 0.961533,-3.683495 3.028206,-8.3629273 C 37.83437,6.8182665 38.057724,6.2708041 38.285164,5.70482 38.758261,4.5274935 38.787943,4.3670182 38.589218,4.0608064 38.35017,3.6924572 37.767012,3.4447482 37.134672,3.4429542 36.705338,3.4417353 36.430674,3.5425485 36.277404,3.7576106 36.197889,3.8691842 35.66715,5.37104 34.732305,8.1298554 34.526499,8.7372074 34.266898,9.4216506 34.155414,9.65084 c -0.18994,0.390479 -0.397285,0.96569 -0.503203,1.395972 -0.02539,0.103136 -0.09108,0.30003 -0.145978,0.437544 -0.0549,0.137514 -0.165061,0.418792 -0.244802,0.625062 -0.07974,0.206271 -0.211463,0.546371 -0.292716,0.755778 -0.138022,0.355714 -0.197366,0.545228 -0.402723,1.286092 -0.09544,0.344339 -0.305398,1.263119 -0.585619,2.562755 -0.201611,0.935045 -0.364851,1.592525 -0.620767,2.500249 -0.190937,0.677246 -0.235737,0.811436 -0.396487,1.187618 -0.07835,0.183351 -0.228411,0.534962 -0.333469,0.781356 -0.183806,0.431082 -0.546091,1.06441 -0.883256,1.544066 -0.249967,0.355607 -0.970936,1.183676 -1.331357,1.529129 -0.313425,0.30041 -0.34341,0.346603 -0.773157,1.190987 -0.731742,1.437761 -1.763168,3.088472 -3.207637,5.133561 -0.263442,0.372984 -0.572826,0.813659 -0.687521,0.979279 -0.114696,0.16562 -0.419343,0.60341 -0.676996,0.972867 -1.201352,1.722654 -2.004864,3.047404 -2.701366,4.453738 -1.443308,2.914249 -1.887278,5.463034 -1.43297,8.226553 0.238011,1.44781 0.683286,2.756374 1.477826,4.342998 l 0.388954,0.776715 0.346188,0.27695 c 1.027175,0.821735 2.310839,1.525258 3.540497,1.940399 0.822211,0.277587 1.51393,0.422624 2.665522,0.558881 0.378701,0.04481 1.88249,-0.0162 2.437502,-0.09889 z m -9.873448,-3.34474 c -0.601766,-1.125906 -1.170488,-2.719427 -1.424193,-3.990501 -0.375,-1.878777 -0.349976,-3.468504 0.08517,-5.410913 0.313212,-1.398105 1.072844,-3.207538 2.040705,-4.860943 0.731229,-1.249159 1.359421,-2.18906 3.445821,-5.155641 1.18682,-1.687501 1.931359,-2.831549 2.610938,-4.011935 0.225092,-0.39097 0.863426,-1.673874 1.011384,-2.032651 0.09568,-0.231998 0.165038,-0.340354 0.243983,-0.381155 0.06067,-0.03135 0.213525,-0.168205 0.339691,-0.304112 0.854671,-0.92068 1.50625,-1.881596 1.830335,-2.699289 0.0545,-0.137514 0.180562,-0.43995 0.280132,-0.67208 0.180617,-0.421077 0.277119,-0.739365 0.630089,-2.078194 0.209462,-0.7945 0.257608,-1.000927 0.427638,-1.833515 0.223141,-1.092658 0.490429,-2.22148 0.626555,-2.646097 0.04041,-0.126054 0.09764,-0.313573 0.127173,-0.416708 0.04798,-0.167553 0.282923,-0.793145 0.688581,-1.833516 0.07596,-0.194811 0.167777,-0.470071 0.204038,-0.611689 0.184267,-0.719653 0.577185,-1.6279668 0.789117,-1.8242079 0.06829,-0.063233 0.19335,-0.3734106 0.413479,-1.0255127 0.173569,-0.5141737 0.408564,-1.1973873 0.522211,-1.5182527 0.113646,-0.3208644 0.220253,-0.6274668 0.236903,-0.6813409 l 0.03027,-0.097947 -0.561092,0.014608 c -0.546281,0.01422 -0.568594,0.018455 -0.845316,0.1604535 -0.476743,0.2446368 -0.629262,0.5400123 -0.876441,1.6973545 -0.203781,0.9541402 -0.453984,1.9896768 -0.601763,2.4905626 -0.577582,1.9576706 -0.752995,2.4888666 -1.272857,3.8545506 -1.493986,3.924718 -3.894888,7.849523 -6.357035,10.391979 l -0.358453,0.370145 -0.684303,0.139977 c -2.676338,0.547454 -5.127609,1.559217 -7.486069,3.089876 -2.05471,1.333522 -3.998164,3.145736 -5.314516,4.955626 -1.0915337,1.50078 -1.8624575,3.091088 -2.2180765,4.57557 -0.2447554,1.021708 -0.2683627,1.221416 -0.2684315,2.271058 0,0.911881 0.00788,1.016541 0.1154304,1.520985 0.2547621,1.194938 0.7490183,2.322147 1.4104674,3.216742 1.9080952,2.580652 5.3215032,4.504281 10.2122342,5.755111 0.08029,0.02053 0.152839,0.03173 0.161225,0.0249 0.0084,-0.0068 -0.08837,-0.206325 -0.21503,-0.443295 z M 51.55309,47.883052 c 2.862575,-0.714693 4.719634,-2.213254 5.430816,-4.382414 0.264008,-0.805246 0.295288,-1.029556 0.295288,-2.117473 0,-1.070032 -0.0215,-1.251584 -0.259129,-2.187718 -0.209002,-0.823366 -0.456613,-1.520017 -0.814606,-2.291897 -1.065159,-2.296607 -2.854408,-4.496087 -4.94325,-6.076612 -0.851903,-0.644592 -1.541116,-1.045016 -3.38017,-1.963833 -1.121178,-0.560155 -1.356478,-0.674112 -2.291235,-1.10965 -3.684135,-1.716577 -5.085131,-2.430111 -6.482967,-3.301805 -1.010544,-0.630176 -2.047031,-1.511828 -2.529653,-2.151759 -0.392282,-0.520148 -0.755041,-1.302469 -1.025005,-2.210512 -0.160309,-0.539212 -0.228028,-0.909098 -0.271506,-1.48299 -0.108453,-1.431552 0.256218,-2.951735 1.123696,-4.684291 0.263529,-0.526328 0.460877,-0.876889 1.66555,-2.958627 0.7732,-1.3361321 1.268929,-2.3789922 1.49553,-3.1461467 0.194785,-0.6594534 0.20035,-0.7343462 0.06925,-0.9322709 -0.12558,-0.1896017 -0.437251,-0.4411911 -0.748968,-0.6045893 -0.114514,-0.060025 -0.21988,-0.1091373 -0.23415,-0.1091373 -0.01427,0 -0.05974,0.089072 -0.101053,0.1979365 -0.04131,0.1088652 -0.327439,0.7792445 -0.635843,1.4897317 -1.185447,2.730974 -1.575179,3.693506 -1.990972,4.917156 -0.472766,1.391321 -0.72485,2.603056 -0.810979,3.89827 -0.02507,0.377035 -0.06419,0.863662 -0.08693,1.081392 -0.03575,0.342248 -0.02707,0.504942 0.06409,1.201059 0.138075,1.054401 0.178076,1.222468 0.59187,2.486808 0.195991,0.598846 0.297918,0.795644 0.654933,1.264528 0.163089,0.214192 0.343446,0.452194 0.400793,0.528893 0.184545,0.24682 0.726075,0.836175 0.852507,0.927795 0.06745,0.04888 0.536651,0.498961 1.042674,1.000187 0.506022,0.501226 1.914754,1.858976 3.130514,3.017222 3.854428,3.67209 5.293921,5.196515 6.661375,7.054414 1.241529,1.686811 2.18338,3.501882 2.604944,5.020068 0.162551,0.585405 0.300044,1.41164 0.353286,2.122999 0.128224,1.713176 -0.252344,3.644097 -1.063366,5.395296 -0.08375,0.180852 -0.152279,0.341715 -0.152279,0.357473 0,0.04037 0.804241,-0.104517 1.384943,-0.249503 z"
       id="path911" />
  </g>
  <g
     inkscape:groupmode="layer"
     id="layer1"
     inkscape:label="Image 1"
     transform="translate(-7.7171185,-3.1710273)" />
</svg>
