<?xml version="1.0" encoding="UTF-8" standalone="no"?>
<!-- Created with Inkscape (http://www.inkscape.org/) -->

<svg
   version="1.1"
   id="svg1658"
   width="45"
   height="44.757969"
   viewBox="0 0 45.000002 44.757971"
   sodipodi:docname="garlic-night.svg"
   inkscape:version="1.1 (c4e8f9ed74, 2021-05-24)"
   xmlns:inkscape="http://www.inkscape.org/namespaces/inkscape"
   xmlns:sodipodi="http://sodipodi.sourceforge.net/DTD/sodipodi-0.dtd"
   xmlns="http://www.w3.org/2000/svg"
   xmlns:svg="http://www.w3.org/2000/svg">
  <defs
     id="defs1662" />
  <sodipodi:namedview
     id="namedview1660"
     pagecolor="#ffffff"
     bordercolor="#666666"
     borderopacity="1.0"
     inkscape:pageshadow="2"
     inkscape:pageopacity="0.0"
     inkscape:pagecheckerboard="0"
     showgrid="false"
     inkscape:zoom="10.24"
     inkscape:cx="28.857422"
     inkscape:cy="26.953125"
     inkscape:window-width="1920"
     inkscape:window-height="1023"
     inkscape:window-x="1920"
     inkscape:window-y="29"
     inkscape:window-maximized="1"
     inkscape:current-layer="g1664"
     fit-margin-top="0"
     fit-margin-left="0"
     fit-margin-right="0"
     fit-margin-bottom="0" />
  <g
     inkscape:groupmode="layer"
     inkscape:label="Image"
     id="g1664"
     transform="translate(-3.6210842,-20.660052)">
    <path
       style="fill:#ffffff;stroke-width:0.0454231"
       d="m 18.622974,65.411664 c -0.0072,-0.0072 -0.24742,-0.02729 -0.533981,-0.04479 -0.735116,-0.0449 -0.833113,-0.05222 -0.884405,-0.06598 -0.02498,-0.0067 -0.106746,-0.01717 -0.181694,-0.02326 -0.07495,-0.0061 -0.14649,-0.01472 -0.158981,-0.01919 -0.01249,-0.0045 -0.17527,-0.01746 -0.361731,-0.02889 -0.18646,-0.01141 -0.349984,-0.03742 -0.363386,-0.05779 -0.0134,-0.02036 -0.08207,-0.03421 -0.152601,-0.03076 -0.07053,0.0035 -0.136879,-0.0077 -0.147445,-0.02481 -0.01056,-0.0171 -0.167485,-0.04565 -0.34871,-0.06347 -0.181224,-0.01781 -0.349938,-0.04781 -0.374921,-0.06666 -0.02498,-0.01886 -0.09652,-0.04507 -0.158981,-0.05825 -0.357043,-0.07534 -1.102221,-0.27815 -1.317273,-0.358515 -0.137405,-0.05135 -0.270268,-0.09837 -0.295251,-0.104505 -0.02498,-0.0061 -0.07609,-0.02316 -0.113558,-0.03784 -0.03747,-0.01468 -0.221438,-0.07955 -0.408809,-0.144163 -0.187371,-0.06461 -0.432656,-0.160604 -0.545078,-0.213326 -0.112423,-0.05272 -0.275947,-0.128905 -0.363387,-0.169302 -0.08744,-0.0404 -0.165794,-0.08878 -0.174122,-0.107517 -0.0083,-0.01873 -0.06284,-0.03407 -0.121128,-0.03407 -0.05829,0 -0.112801,-0.01533 -0.121129,-0.03407 -0.0083,-0.01874 -0.08668,-0.06763 -0.174122,-0.108645 -0.08744,-0.04102 -0.230523,-0.108361 -0.317963,-0.149651 -0.08744,-0.04129 -0.220302,-0.114817 -0.29525,-0.163394 -0.07495,-0.04858 -0.166931,-0.102823 -0.204405,-0.120551 -0.03747,-0.01772 -0.119027,-0.07927 -0.181229,-0.136767 -0.06221,-0.0575 -0.135686,-0.104543 -0.163297,-0.104543 -0.02762,0 -0.0872,-0.04088 -0.132418,-0.09085 -0.045215,-0.04997 -0.1067227,-0.09084 -0.1366765,-0.09084 -0.029952,0 -0.1057246,-0.04599 -0.1683786,-0.102203 C 9.600668,62.547618 9.4747871,62.458526 9.3760976,62.411782 9.3424844,62.395866 9.2510536,62.32445 9.1729254,62.253092 9.0947968,62.18173 9.017033,62.123346 9.0001161,62.123346 c -0.016917,0 -0.1001922,-0.06643 -0.1850559,-0.147624 C 8.7301959,61.894534 8.5629389,61.746341 8.4433783,61.64641 8.1328794,61.386889 8.1163723,61.36995 7.9550097,61.145258 7.8748653,61.03366 7.795382,60.94235 7.7783797,60.94235 7.761377,60.94235 7.5937227,60.743055 7.405814,60.499473 7.2179049,60.255891 6.9883247,59.974836 6.8956361,59.874905 6.8029474,59.774975 6.6950912,59.631892 6.6559563,59.556944 6.6168211,59.481996 6.540803,59.359353 6.4870273,59.284404 6.4332512,59.209456 6.3668231,59.097033 6.3394091,59.034574 6.3119947,58.972119 6.1977864,58.726833 6.0856123,58.489496 5.9734382,58.252162 5.8473295,57.976216 5.8053703,57.876282 5.7634113,57.776353 5.7118764,57.65371 5.6908486,57.603743 c -0.021028,-0.04996 -0.049664,-0.126615 -0.063637,-0.170337 -0.013973,-0.04372 -0.051597,-0.07963 -0.08361,-0.0798 -0.032013,-3.41e-4 -0.1035217,-0.0666 -0.1589091,-0.147625 C 5.3293048,57.124956 5.1743253,56.941095 5.0402936,56.797398 4.9062618,56.653702 4.7680306,56.479958 4.7331128,56.411302 4.6981947,56.342646 4.6282782,56.225151 4.5777423,56.150203 4.3594444,55.826446 3.9637197,55.046483 3.9637197,54.939971 c 0,-0.04068 -0.030535,-0.132498 -0.067855,-0.204057 -0.03732,-0.07156 -0.067981,-0.183068 -0.068135,-0.247799 -1.704e-4,-0.06473 -0.029991,-0.216413 -0.066303,-0.337073 -0.036312,-0.120657 -0.056606,-0.234612 -0.045098,-0.253233 0.011509,-0.01862 -0.00192,-0.09178 -0.029837,-0.162582 -0.1291066,-0.327399 -0.051822,-2.473337 0.099129,-2.752466 0.023807,-0.04402 0.031081,-0.128664 0.016165,-0.188093 -0.014916,-0.05943 -0.00502,-0.121711 0.021984,-0.138401 0.027007,-0.01669 0.049104,-0.06959 0.049104,-0.117558 0,-0.268079 0.3862379,-1.133856 0.505833,-1.133856 0.021585,0 0.039245,-0.02951 0.039245,-0.06558 0,-0.0891 0.8854417,-0.979154 0.9740722,-0.979154 0.038864,0 0.070661,-0.0171 0.070661,-0.038 0,-0.0327 0.319229,-0.203555 0.6132134,-0.328199 0.247453,-0.104917 0.5813307,-0.166739 0.9222629,-0.170769 0.4323966,-0.0051 2.0492366,0.197111 2.1168905,0.264764 0.024796,0.0248 0.1006133,0.04508 0.1684831,0.04508 0.06787,0 0.130213,0.01566 0.1385407,0.0348 0.00832,0.01914 0.1888849,0.09376 0.4012381,0.16582 0.2123534,0.07206 0.4665884,0.168824 0.5649664,0.215028 0.09838,0.04621 0.20569,0.08401 0.238471,0.08401 0.03278,0 0.0596,0.0164 0.0596,0.03645 0,0.02005 0.107313,0.07427 0.238472,0.120502 0.131159,0.04623 0.330454,0.123888 0.442876,0.172576 0.404928,0.175367 0.61545,0.269871 0.741809,0.332998 0.07073,0.03533 0.162709,0.0647 0.204404,0.06526 0.0417,5.55e-4 0.126911,0.04098 0.189368,0.08984 0.06246,0.04886 0.159827,0.08928 0.216376,0.08984 0.05655,5.55e-4 0.143423,0.02145 0.19305,0.04643 0.04963,0.02498 0.130833,0.06587 0.180459,0.09085 0.04963,0.02498 0.129686,0.04542 0.177908,0.04542 0.04822,0 0.09449,0.01648 0.102819,0.03663 0.0083,0.02014 0.178665,0.0906 0.378526,0.156571 0.420557,0.138814 1.094221,0.379206 1.226427,0.437641 0.04997,0.02208 0.182829,0.06661 0.295251,0.09894 0.112423,0.03233 0.224845,0.07128 0.249828,0.08655 0.02498,0.01527 0.127184,0.05383 0.227116,0.08567 0.190411,0.06068 0.355025,0.125981 0.487683,0.193464 0.04338,0.02207 0.126165,0.04012 0.183964,0.04012 0.0578,0 0.124508,0.01916 0.148242,0.04257 0.05244,0.05173 1.09523,0.200159 1.179382,0.167867 0.03292,-0.01263 0.279253,0.0076 0.5474,0.04497 0.339438,0.04731 0.523426,0.05433 0.60567,0.02311 0.06497,-0.02466 0.220333,-0.05855 0.345246,-0.07532 0.124915,-0.01677 0.260545,-0.04837 0.301401,-0.07023 0.04086,-0.02186 0.161355,-0.05069 0.267774,-0.06406 0.106419,-0.01337 0.318277,-0.0634 0.470794,-0.111183 0.152518,-0.04778 0.379507,-0.106541 0.50442,-0.130581 0.124914,-0.02404 0.472402,-0.105003 0.772195,-0.179919 0.299794,-0.07491 0.624248,-0.150231 0.721008,-0.167367 0.09676,-0.01713 0.209184,-0.04797 0.249828,-0.06852 0.04064,-0.02055 0.206762,-0.101062 0.36915,-0.178903 0.162387,-0.07784 0.325911,-0.158384 0.363385,-0.178981 0.207856,-0.114243 0.377614,-0.189031 0.429076,-0.189031 0.03208,0 0.111465,-0.0418 0.17641,-0.09288 0.06494,-0.05109 0.134132,-0.09101 0.153751,-0.08872 0.03114,0.0037 0.364663,-0.134345 0.989557,-0.409386 0.26117,-0.114952 0.51998,-0.18066 0.712735,-0.180951 0.09221,-1.36e-4 0.180624,-0.02123 0.196474,-0.04688 0.01584,-0.02565 0.05282,-0.04286 0.08217,-0.03826 0.08036,0.0126 0.142112,-0.01192 0.84826,-0.336948 0.49409,-0.227417 0.65011,-0.302282 0.726771,-0.348735 0.03747,-0.02271 0.129456,-0.06948 0.204405,-0.103946 0.07495,-0.03446 0.18226,-0.08686 0.238471,-0.116439 0.204376,-0.107543 0.311695,-0.163233 0.579146,-0.300529 0.364003,-0.18686 0.525238,-0.299059 0.560918,-0.390328 0.02868,-0.07337 0.328389,-0.341916 0.720517,-0.645612 0.105202,-0.08148 0.192534,-0.178802 0.194069,-0.216276 0.0015,-0.03747 0.103589,-0.139677 0.226787,-0.227116 0.218601,-0.155155 0.3513,-0.364876 0.603563,-0.953888 0.251536,-0.587316 0.356372,-0.825731 0.489356,-1.112869 0.04628,-0.09993 0.120735,-0.289005 0.165453,-0.420164 0.04472,-0.13116 0.09695,-0.238473 0.116066,-0.238473 0.01912,0 0.03476,-0.04116 0.03476,-0.09146 0,-0.05031 0.01821,-0.126955 0.04045,-0.170336 0.03782,-0.07374 0.114504,-0.245866 0.293846,-0.659561 0.04098,-0.09453 0.07451,-0.201846 0.07451,-0.238473 0,-0.03663 0.02045,-0.06659 0.04542,-0.06659 0.02498,0 0.04542,-0.0511 0.04542,-0.113559 0,-0.06245 0.0164,-0.113558 0.03645,-0.113558 0.02005,0 0.07417,-0.107312 0.120287,-0.238472 0.04611,-0.13116 0.09757,-0.258912 0.114349,-0.283894 0.01678,-0.02498 0.05888,-0.137406 0.09357,-0.249829 0.03468,-0.112422 0.07416,-0.214624 0.08774,-0.227116 0.03078,-0.02831 0.103587,-0.188669 0.206237,-0.454231 0.0992,-0.256627 0.174881,-0.424875 0.204332,-0.454233 0.04057,-0.04044 0.604051,-1.230435 0.682896,-1.442187 0.03023,-0.08119 0.07293,-0.147625 0.09488,-0.147625 0.02195,0 0.03998,-0.02555 0.04005,-0.05678 1.02e-4,-0.03123 0.07089,-0.197243 0.157363,-0.368919 0.198506,-0.394104 0.342153,-0.806632 0.342153,-0.982602 0,-0.07485 0.01808,-0.13609 0.04019,-0.13609 0.0221,0 0.05419,-0.1121 0.07132,-0.249112 0.01712,-0.137011 0.05014,-0.26086 0.07337,-0.275219 0.02324,-0.01436 0.04224,-0.106665 0.04224,-0.20512 0,-0.09846 0.01808,-0.179013 0.04019,-0.179013 0.0221,0 0.05419,-0.1121 0.07132,-0.249112 0.01712,-0.137011 0.05014,-0.26086 0.07337,-0.275219 0.02324,-0.01436 0.04224,-0.08365 0.04224,-0.153986 0,-0.07033 0.03066,-0.21478 0.06813,-0.320994 0.03747,-0.106213 0.06814,-0.25066 0.06814,-0.320992 0,-0.07033 0.01808,-0.139053 0.04018,-0.152712 0.0221,-0.01366 0.05446,-0.120071 0.07192,-0.236473 0.01745,-0.116401 0.04831,-0.244406 0.06856,-0.284453 0.03909,-0.07731 0.127147,-0.466726 0.165389,-0.731452 0.01263,-0.08744 0.04028,-0.199862 0.06145,-0.249827 0.08398,-0.198226 0.08574,-0.25538 0.01385,-0.449351 -0.07426,-0.200382 -0.074,-0.202406 0.04723,-0.361349 0.06706,-0.08791 0.121915,-0.20236 0.121915,-0.254332 0,-0.05197 0.01923,-0.129986 0.04274,-0.173367 0.02351,-0.04338 0.07971,-0.17076 0.124914,-0.283064 0.0452,-0.112304 0.139045,-0.306488 0.208546,-0.431521 0.0695,-0.125032 0.138317,-0.263101 0.152923,-0.306822 0.01461,-0.04372 0.04462,-0.07949 0.06668,-0.07949 0.02207,0 0.04013,-0.02127 0.04013,-0.04726 0,-0.07825 0.194417,-0.316123 0.25837,-0.316123 0.03277,0 0.05959,-0.03094 0.05959,-0.06875 0,-0.03781 0.01814,-0.104244 0.04033,-0.147626 0.02217,-0.04338 0.09565,-0.201517 0.163274,-0.351413 0.156422,-0.346736 0.344498,-0.708897 0.389219,-0.749483 0.05471,-0.04966 0.270226,-0.502307 0.270226,-0.567571 0,-0.03828 0.01752,-0.105081 0.03894,-0.148462 0.07719,-0.156362 0.181539,-0.355584 0.303016,-0.578529 0.06806,-0.124914 0.177716,-0.329319 0.243671,-0.454232 0.131442,-0.248932 0.358293,-0.601592 0.447676,-0.695949 0.03127,-0.03301 0.05686,-0.07713 0.05686,-0.09803 0,-0.0209 0.09198,-0.132653 0.204404,-0.248328 0.112422,-0.115673 0.204404,-0.229042 0.204404,-0.25193 0,-0.02289 0.04599,-0.09042 0.102202,-0.150081 0.418045,-0.443663 0.488299,-0.524989 0.488299,-0.565258 0,-0.02501 0.0714,-0.09409 0.158672,-0.153525 0.08727,-0.05943 0.158809,-0.132959 0.15898,-0.163397 3.4e-4,-0.03044 0.09161,-0.122418 0.203204,-0.204404 0.111592,-0.08199 0.215225,-0.185007 0.2303,-0.228936 0.01507,-0.04392 0.193343,-0.20619 0.396156,-0.36058 0.202814,-0.154389 0.442247,-0.353512 0.532069,-0.442495 0.08982,-0.08899 0.244389,-0.214457 0.34348,-0.278832 0.09909,-0.06437 0.268091,-0.176797 0.375556,-0.249828 0.107462,-0.07303 0.230017,-0.153223 0.272342,-0.178206 0.04232,-0.02498 0.138079,-0.0863 0.212782,-0.13627 0.0747,-0.04997 0.176994,-0.112772 0.227311,-0.139569 0.212332,-0.113083 0.32563,-0.18425 0.447192,-0.280899 0.07091,-0.05638 0.146259,-0.0918 0.167442,-0.0787 0.02119,0.0131 0.106325,-0.01609 0.189203,-0.06483 0.36211,-0.212986 0.660939,-0.358308 0.797448,-0.387804 0.08091,-0.01748 0.158801,-0.0507 0.173092,-0.07383 0.02947,-0.04769 0.39985,-0.223501 0.470836,-0.223501 0.02559,0 0.119791,-0.04115 0.209327,-0.09144 0.08954,-0.05029 0.228133,-0.09987 0.30799,-0.110175 0.07986,-0.0103 0.206517,-0.0508 0.281465,-0.08998 0.07495,-0.03918 0.16693,-0.07149 0.204404,-0.0718 0.03747,-3.07e-4 0.128349,-0.03196 0.201948,-0.07034 0.0736,-0.03838 0.186019,-0.07732 0.249828,-0.08652 0.06381,-0.0092 0.269316,-0.07102 0.456687,-0.137372 0.18737,-0.06635 0.412215,-0.138627 0.499656,-0.160618 0.08744,-0.02199 0.294175,-0.07498 0.459417,-0.11776 0.16524,-0.04278 0.332221,-0.06558 0.371075,-0.05068 0.03885,0.01491 0.175921,0.166181 0.304597,0.33616 l 0.233958,0.309053 -0.12809,0.106905 c -0.07045,0.05879 -0.341281,0.304258 -0.601852,0.545466 -0.419953,0.388748 -0.525156,0.490691 -0.726267,0.70377 -0.02738,0.02901 -0.218269,0.222278 -0.42419,0.429477 -0.20592,0.207199 -0.381044,0.395763 -0.389162,0.41903 -0.0081,0.02326 -0.07966,0.110357 -0.158982,0.193532 -0.286695,0.300633 -0.43947,0.479846 -0.43947,0.515525 0,0.02001 -0.04034,0.07799 -0.08964,0.128826 -0.175171,0.180661 -0.364596,0.423054 -0.364596,0.466549 0,0.02429 -0.04599,0.09541 -0.102202,0.158067 -0.132311,0.147473 -0.211828,0.265875 -0.245088,0.364936 -0.01468,0.04372 -0.04154,0.07949 -0.05968,0.07949 -0.01815,0 -0.0803,0.09198 -0.138113,0.204404 -0.05783,0.112422 -0.122357,0.204404 -0.143414,0.204404 -0.02105,0 -0.03829,0.04088 -0.03829,0.09085 0,0.04997 -0.01618,0.09085 -0.03596,0.09085 -0.01977,0 -0.06709,0.06643 -0.105152,0.147626 -0.03805,0.08119 -0.154738,0.306101 -0.259291,0.499794 -0.104556,0.193693 -0.1901,0.382767 -0.1901,0.420164 0,0.0374 -0.02044,0.068 -0.04542,0.068 -0.02498,0 -0.04542,0.0511 -0.04542,0.113558 0,0.06245 -0.01651,0.113558 -0.03668,0.113558 -0.02018,0 -0.07248,0.08688 -0.116248,0.193048 -0.04376,0.106177 -0.0988,0.228542 -0.122299,0.271924 -0.02351,0.04338 -0.04274,0.121019 -0.04274,0.172531 0,0.05151 -0.04088,0.17827 -0.09085,0.281688 -0.04997,0.103416 -0.09085,0.221664 -0.09085,0.262774 0,0.0411 -0.01404,0.08879 -0.0312,0.105951 -0.03155,0.03154 -0.0365,0.05202 -0.08697,0.358675 -0.01541,0.09369 -0.04359,0.170337 -0.06262,0.170337 -0.01902,0 -0.05137,0.127753 -0.07189,0.283895 -0.04113,0.313073 -0.04957,0.363971 -0.06584,0.397454 -0.05632,0.115903 -0.226899,1.423463 -0.245912,1.885063 -0.01132,0.274811 -0.02354,0.509876 -0.02715,0.522367 -0.03405,0.117745 0.05911,2.802277 0.111921,3.225049 0.01092,0.08744 0.03094,0.383826 0.04447,0.658636 0.01353,0.274811 0.03625,0.652959 0.05049,0.840329 0.119712,1.576005 0.158873,3.251131 0.09085,3.886285 -0.01806,0.168719 -0.03998,0.45686 -0.0487,0.640313 -0.02058,0.433164 -0.09878,1.018189 -0.178183,1.332997 -0.08709,0.34529 -0.162308,0.67845 -0.189711,0.84033 -0.01269,0.07495 -0.03486,0.166931 -0.04927,0.204405 -0.04086,0.10625 -0.05947,0.189914 -0.08585,0.386097 -0.01345,0.09993 -0.04012,0.222573 -0.05929,0.272539 -0.09267,0.241572 -0.1853,0.566842 -0.1853,0.650697 0,0.05138 -0.01829,0.104723 -0.04062,0.118533 -0.02234,0.01381 -0.05287,0.112107 -0.06783,0.21844 -0.03984,0.283179 -0.08104,0.428389 -0.167404,0.590171 -0.02316,0.04338 -0.04211,0.129046 -0.04211,0.190367 0,0.06132 -0.02045,0.124127 -0.04542,0.139567 -0.02498,0.01544 -0.04542,0.08847 -0.04542,0.162279 0,0.07381 -0.01806,0.169698 -0.04012,0.213079 -0.06493,0.12762 -0.126397,0.287198 -0.231628,0.601242 -0.05441,0.162387 -0.11773,0.330743 -0.140705,0.374125 -0.02298,0.04338 -0.04178,0.120032 -0.04178,0.170337 0,0.05031 -0.02045,0.09146 -0.04542,0.09146 -0.02498,0 -0.04542,0.04939 -0.04542,0.109772 0,0.06038 -0.01533,0.116587 -0.03407,0.124914 -0.02889,0.01284 -0.224665,0.511708 -0.255503,0.651066 -0.0055,0.02498 -0.03534,0.09141 -0.06624,0.147626 -0.03091,0.05621 -0.04453,0.102202 -0.03028,0.102202 0.01425,0 6.13e-4,0.04599 -0.03028,0.102202 -0.03091,0.05622 -0.06117,0.132492 -0.06726,0.169513 -0.0061,0.03702 -0.03262,0.07449 -0.05896,0.08328 -0.02634,0.0088 -0.0479,0.07559 -0.0479,0.148449 0,0.07287 -0.01545,0.132485 -0.03433,0.132485 -0.04379,0 -0.223972,0.41599 -0.359067,0.828974 -0.01431,0.04372 -0.04406,0.07949 -0.06612,0.07949 -0.02207,0 -0.04012,0.03081 -0.04012,0.06847 0,0.05756 -0.12758,0.340694 -0.276158,0.612881 -0.02045,0.03747 -0.104553,0.200997 -0.186883,0.363386 -0.08233,0.162388 -0.163851,0.305886 -0.181157,0.318887 -0.0173,0.013 -0.05283,0.07433 -0.07894,0.136269 -0.02611,0.06195 -0.09805,0.194395 -0.159869,0.294327 -0.06181,0.09993 -0.154318,0.271545 -0.205566,0.381364 -0.05125,0.109819 -0.128778,0.226702 -0.172289,0.259739 -0.04351,0.03304 -0.06062,0.06072 -0.03801,0.06151 0.02261,7.93e-4 0.0057,0.04053 -0.0375,0.08831 -0.04324,0.04777 -0.08295,0.116442 -0.08826,0.152596 -0.0053,0.03616 -0.04635,0.102439 -0.09121,0.147302 -0.04487,0.04487 -0.100602,0.124388 -0.123862,0.176722 -0.02327,0.05233 -0.08264,0.156475 -0.131964,0.231423 -0.04932,0.07495 -0.103981,0.16693 -0.121471,0.204404 -0.01748,0.03747 -0.119914,0.189756 -0.227615,0.338405 -0.1077,0.148651 -0.195819,0.296843 -0.195819,0.329316 0,0.03248 -0.01949,0.05904 -0.04329,0.05904 -0.02381,0 -0.07813,0.07342 -0.120714,0.163152 -0.04258,0.08973 -0.104859,0.173683 -0.138398,0.186553 -0.03354,0.01287 -0.06098,0.04697 -0.06098,0.07579 0,0.02882 -0.05622,0.112752 -0.124914,0.186536 -0.118196,0.126938 -0.192669,0.234148 -0.268119,0.38598 -0.01827,0.03675 -0.08774,0.120142 -0.154391,0.185292 -0.06665,0.06515 -0.129158,0.13952 -0.138908,0.165261 -0.02555,0.06745 -0.269175,0.370409 -0.41518,0.516285 -0.0687,0.06864 -0.124914,0.140453 -0.124914,0.159576 0,0.01912 -0.04925,0.08757 -0.109453,0.152114 -0.288036,0.308801 -0.481078,0.540057 -0.48136,0.576652 -1.7e-4,0.02219 -0.07171,0.08897 -0.158981,0.148401 -0.08727,0.05943 -0.158671,0.123 -0.158671,0.141261 0,0.09435 -1.43631,1.46887 -1.961136,1.876777 -0.216719,0.168436 -0.400683,0.321791 -0.408808,0.340787 -0.0081,0.01899 -0.221419,0.192228 -0.473985,0.384971 -0.252565,0.192744 -0.533614,0.42061 -0.624552,0.506378 -0.09094,0.08577 -0.20689,0.169125 -0.257669,0.185238 -0.05078,0.01612 -0.14788,0.08088 -0.215778,0.143912 -0.0679,0.06303 -0.184633,0.146303 -0.259414,0.185047 -0.07478,0.03874 -0.202531,0.123559 -0.28389,0.188475 -0.08136,0.06492 -0.163259,0.118101 -0.181998,0.118183 -0.01874,0 -0.107544,0.0563 -0.197341,0.124912 -0.0898,0.06862 -0.18543,0.124768 -0.212516,0.124768 -0.02709,0 -0.0798,0.03055 -0.117134,0.06789 -0.03734,0.03734 -0.109429,0.07423 -0.160203,0.08198 -0.05077,0.0078 -0.128997,0.04645 -0.173829,0.08601 -0.04483,0.03956 -0.189895,0.130421 -0.322362,0.201921 -0.132467,0.0715 -0.27555,0.151144 -0.317962,0.176987 -0.18084,0.110201 -0.489412,0.266087 -0.531347,0.268431 -0.02498,0.0014 -0.229387,0.09282 -0.454233,0.203161 -0.769057,0.377409 -0.943977,0.458016 -0.994335,0.458206 -0.02772,0 -0.152458,0.05196 -0.277199,0.115251 -0.12474,0.06328 -0.288263,0.122993 -0.363386,0.132696 -0.07512,0.0097 -0.197906,0.04969 -0.272854,0.08887 -0.07495,0.03918 -0.15868,0.07136 -0.186071,0.07151 -0.02739,0 -0.111391,0.03101 -0.186668,0.06856 -0.07528,0.03756 -0.196252,0.07519 -0.268832,0.08364 -0.07258,0.0084 -0.203202,0.04782 -0.290274,0.08749 -0.08707,0.03966 -0.280955,0.105827 -0.430852,0.147018 -0.149897,0.04119 -0.335312,0.09374 -0.412034,0.11677 -0.07672,0.02303 -0.179946,0.04188 -0.229388,0.04188 -0.04944,0 -0.112156,0.02226 -0.139368,0.04948 -0.02721,0.02721 -0.122844,0.0563 -0.212517,0.06463 -0.08967,0.0083 -0.273161,0.04717 -0.407751,0.08629 -0.134591,0.03913 -0.317948,0.08052 -0.40746,0.09198 -0.08952,0.01146 -0.244248,0.04278 -0.343857,0.06961 -0.09961,0.02682 -0.197747,0.04456 -0.218083,0.03942 -0.02034,-0.0051 -0.156126,0.01665 -0.301759,0.04842 -0.145632,0.03177 -0.274923,0.04763 -0.287314,0.03523 -0.01239,-0.01239 -0.08742,-0.0036 -0.166734,0.01957 -0.07931,0.02315 -0.27707,0.05276 -0.439457,0.06581 -0.162388,0.01304 -0.407673,0.03252 -0.545079,0.04329 -0.137406,0.01077 -0.382691,0.03104 -0.545078,0.04503 -0.329311,0.0284 -1.718263,0.06069 -1.738528,0.04043 z m 1.488699,-0.723248 c 0.324776,-0.01509 0.662044,-0.03484 0.749483,-0.04389 0.481153,-0.04979 1.379005,-0.163807 1.402981,-0.178162 0.01532,-0.0092 0.126526,-0.02988 0.24713,-0.04601 0.235296,-0.03148 0.988414,-0.182108 1.254086,-0.250819 1.345055,-0.347868 1.819178,-0.501135 3.182514,-1.028788 0.237336,-0.09186 0.758568,-0.325855 1.158293,-0.519994 1.946823,-0.945551 3.371806,-1.880307 5.05573,-3.316446 0.9345,-0.796994 2.399656,-2.346764 3.153208,-3.335316 0.05693,-0.07468 0.13417,-0.169713 0.171645,-0.211173 0.03747,-0.04146 0.115506,-0.143881 0.173404,-0.227598 0.0579,-0.08372 0.217941,-0.305516 0.35565,-0.492887 0.137708,-0.187371 0.343378,-0.483758 0.457042,-0.658635 0.113664,-0.174879 0.26534,-0.403065 0.337055,-0.507079 0.07171,-0.104016 0.130393,-0.200084 0.130393,-0.213484 0,-0.0134 0.05931,-0.112261 0.131803,-0.21969 0.353555,-0.523951 1.350385,-2.375563 1.633529,-3.034277 0.05906,-0.137405 0.143915,-0.33159 0.188557,-0.431521 0.07533,-0.168626 0.149736,-0.340247 0.295391,-0.681348 0.03201,-0.07495 0.143717,-0.361114 0.248253,-0.635925 0.104532,-0.274811 0.240359,-0.6299 0.30183,-0.789087 0.18407,-0.476645 0.606707,-1.791535 0.790282,-2.458673 0.716622,-2.604292 0.861388,-3.5131 0.882745,-5.541633 0.0081,-0.761974 -0.0021,-1.620473 -0.02269,-1.907774 -0.0205,-0.287302 -0.04937,-0.716552 -0.06415,-0.953888 -0.01478,-0.237336 -0.04725,-0.687026 -0.07217,-0.99931 -0.07946,-0.996043 -0.08543,-1.130999 -0.116279,-2.634654 -0.03141,-1.530115 -0.0071,-1.944018 0.190607,-3.247653 0.106502,-0.702196 0.388355,-1.8199 0.561274,-2.225738 0.02129,-0.04997 0.08474,-0.213489 0.140995,-0.363385 0.385991,-1.028439 1.065125,-2.254407 1.786539,-3.225048 0.592637,-0.797372 0.883461,-1.138222 1.617617,-1.895881 0.362248,-0.373846 0.665449,-0.698093 0.673778,-0.720549 0.03196,-0.08618 -0.22683,-0.03332 -0.791458,0.161654 -0.855292,0.29534 -1.150152,0.404056 -1.398416,0.515601 -0.121845,0.05474 -0.229662,0.09953 -0.239595,0.09953 -0.04454,0 -1.466299,0.720889 -1.59642,0.80945 -0.35841,0.243939 -0.415718,0.280707 -0.437535,0.280707 -0.01276,0 -0.182219,0.106697 -0.376581,0.237102 -1.791976,1.202327 -3.587009,3.318664 -4.297148,5.066324 -0.06248,0.153762 -0.226017,0.461307 -0.36342,0.683435 -0.465011,0.751744 -0.634886,1.138475 -0.971653,2.21203 -0.0627,0.199862 -0.131309,0.445147 -0.152475,0.545078 -0.02116,0.09993 -0.06918,0.304336 -0.106697,0.454232 -0.03752,0.149897 -0.09064,0.374741 -0.118058,0.499655 -0.02742,0.124914 -0.0677,0.267998 -0.08952,0.317963 -0.02182,0.04997 -0.04985,0.152168 -0.06228,0.227116 -0.01243,0.07495 -0.05642,0.258912 -0.09775,0.408809 -0.04133,0.149897 -0.09318,0.354301 -0.115216,0.454232 -0.06732,0.305326 -0.171374,0.726772 -0.17943,0.726772 -0.0072,0 -0.08432,0.30878 -0.181693,0.726772 -0.09737,0.417991 -0.174568,0.726771 -0.181693,0.726771 -0.01477,0 -0.142139,0.547307 -0.166553,0.7157 -0.01361,0.09384 -0.04302,0.18192 -0.06536,0.195729 -0.02234,0.01381 -0.04062,0.06506 -0.04062,0.113891 0,0.04883 -0.01997,0.124275 -0.04438,0.167655 -0.04041,0.07181 -0.361485,0.73974 -1.031419,2.145632 -0.136905,0.287301 -0.288124,0.60095 -0.336041,0.696996 -0.04792,0.09605 -0.08643,0.208469 -0.08558,0.249827 8.48e-4,0.04136 0.04103,-0.0065 0.0893,-0.106494 0.04827,-0.09993 0.08776,-0.151033 0.08776,-0.113559 0,0.08378 -0.174919,0.453972 -0.177069,0.374742 -8.49e-4,-0.03123 -0.02147,-0.05678 -0.04583,-0.05678 -0.0249,0 -0.03317,0.06465 -0.01889,0.147626 0.01733,0.100702 0.0116,0.128122 -0.018,0.08627 -0.03129,-0.04423 -0.05215,-0.003 -0.07475,0.147626 -0.01724,0.114941 -0.05052,0.208984 -0.07398,0.208984 -0.02345,0 -0.04264,0.03094 -0.04264,0.06875 0,0.03781 -0.02011,0.104244 -0.04468,0.147625 -0.07717,0.136236 -0.454976,0.960803 -0.454976,0.993003 0,0.01689 -0.05324,0.145163 -0.118319,0.285059 -0.06508,0.139896 -0.135234,0.295236 -0.155909,0.345202 -0.119502,0.288802 -0.207915,0.489645 -0.344686,0.783 -0.08431,0.180823 -0.153281,0.338724 -0.153281,0.350893 0,0.01216 -0.06132,0.15601 -0.136269,0.31965 -0.07495,0.163639 -0.13627,0.309278 -0.13627,0.323644 0,0.01437 -0.08176,0.198214 -0.181692,0.408551 -0.09993,0.210338 -0.181694,0.403014 -0.181694,0.42817 0,0.08758 -1.824114,1.804642 -2.112179,1.988216 -0.286815,0.182778 -2.276159,1.159589 -2.726579,1.338808 -0.224192,0.0892 -0.550706,0.181874 -0.725585,0.205929 -0.21436,0.02949 -0.502971,0.124629 -0.885753,0.292001 -0.821113,0.359028 -0.976207,0.430351 -1.430832,0.657998 -0.46983,0.235261 -0.891216,0.401771 -1.100065,0.434686 -0.168233,0.02651 -1.303148,0.302942 -1.897868,0.462258 -0.362902,0.09722 -0.745759,0.190057 -1.376083,0.333695 -0.208995,0.04762 -0.534692,0.02529 -1.939811,-0.133063 -0.754316,-0.085 -1.247563,-0.199943 -1.726082,-0.40221 -0.04997,-0.02112 -0.162388,-0.06296 -0.249828,-0.09299 -0.08744,-0.03002 -0.199862,-0.0709 -0.249827,-0.09085 -0.04997,-0.01994 -0.162388,-0.06083 -0.249828,-0.09085 -0.08744,-0.03002 -0.199863,-0.07091 -0.249828,-0.09085 -0.04997,-0.01994 -0.162388,-0.06082 -0.249827,-0.09085 -0.192307,-0.06604 -0.358886,-0.133026 -0.464972,-0.186993 -0.04338,-0.02206 -0.115944,-0.04012 -0.161252,-0.04012 -0.04531,0 -0.101797,-0.01688 -0.125531,-0.03752 -0.02373,-0.02064 -0.135134,-0.0652 -0.247556,-0.09903 -0.112422,-0.03383 -0.224846,-0.07458 -0.249828,-0.09056 -0.02498,-0.01598 -0.137405,-0.05686 -0.249828,-0.09085 -0.112422,-0.03398 -0.224844,-0.07428 -0.249827,-0.08955 -0.02498,-0.01527 -0.127185,-0.05461 -0.227116,-0.0874 -0.09993,-0.0328 -0.283896,-0.106211 -0.40881,-0.163135 -0.486897,-0.221876 -0.658807,-0.295829 -0.687681,-0.295829 -0.02876,0 -0.452939,-0.18989 -0.61762,-0.276487 -0.04338,-0.02281 -0.09969,-0.04147 -0.125136,-0.04147 -0.02545,0 -0.152189,-0.0511 -0.281656,-0.113558 -0.129467,-0.06245 -0.2602983,-0.113558 -0.2907364,-0.113558 -0.030435,0 -0.1441448,-0.04378 -0.2526829,-0.0973 C 9.3473191,49.052063 9.3419974,49.049947 8.6478703,48.797035 8.3386431,48.684365 8.0383572,48.547761 7.9805677,48.493471 c -0.097291,-0.0914 -0.1380664,-0.09694 -0.5506381,-0.07482 -0.2450612,0.01314 -0.5171079,0.03547 -0.6045475,0.04961 -0.3711655,0.06004 -1.3626965,0.664745 -1.3626965,0.831066 0,0.06868 -0.00241,0.06822 0.4542324,0.08498 1.2697362,0.04659 2.9934455,0.939862 3.741367,1.938876 0.464617,0.620599 0.511703,0.841869 0.441212,2.07335 -0.06479,1.13199 -0.1073991,1.473639 -0.2612474,2.095029 -0.1987531,0.802767 -0.4901615,1.327044 -1.0628241,1.912145 -0.4413845,0.450971 -0.7471842,0.602118 -1.2005282,0.593383 -0.2809859,-0.0054 -0.6618971,-0.07664 -0.8967576,-0.167697 -0.2586491,-0.100274 0.02821,0.536064 0.6960669,1.544078 1.4513484,2.190563 3.8487624,3.835183 6.8551604,4.702625 0.112422,0.03244 0.291991,0.0867 0.399041,0.120565 0.107049,0.03387 0.246366,0.06159 0.309592,0.06159 0.06322,0 0.149562,0.01852 0.191855,0.04115 0.116029,0.0621 1.365956,0.267678 1.983886,0.326297 1.239566,0.117595 1.637687,0.125921 2.997932,0.06271 z m -2.997932,-1.096249 c -1.848875,-0.25032 -2.534434,-0.460454 -3.556679,-1.09017 -0.681011,-0.419513 -1.447515,-1.179442 -1.88456,-1.868397 -0.689737,-1.087295 -1.263113,-2.956993 -1.276787,-4.163423 -0.0044,-0.38568 0.0011,-0.40965 0.104082,-0.461661 0.07844,-0.03959 0.137799,-0.0416 0.213262,-0.0073 0.13114,0.05975 0.142,0.08944 0.200075,0.546925 0.07683,0.605228 0.08203,0.639647 0.154852,1.023504 0.216834,1.143054 0.66873,2.281478 1.209952,3.048134 0.454026,0.643138 1.149073,1.259088 1.860583,1.648846 0.239343,0.131112 0.959424,0.407773 1.317272,0.506105 0.318984,0.08765 1.036169,0.202058 1.589813,0.253598 1.644216,0.153065 4.47079,-0.278524 6.677213,-1.019545 0.187371,-0.06293 0.63706,-0.214015 0.999311,-0.335752 0.728868,-0.244937 1.832726,-0.647021 2.369574,-0.863125 0.191533,-0.0771 0.380607,-0.14018 0.420165,-0.14018 0.106988,0 0.253616,0.16663 0.253616,0.288213 0,0.148143 -0.112109,0.235022 -0.478832,0.371066 -0.173841,0.06449 -0.489818,0.1855 -0.702171,0.268911 -2.299933,0.903403 -5.005232,1.658851 -6.677213,1.864602 -0.112423,0.01384 -0.275947,0.0339 -0.363386,0.04459 -0.426243,0.0521 -0.76884,0.072 -1.498966,0.08705 -0.437199,0.009 -0.856228,0.0081 -0.931176,-0.0021 z M 15.228677,52.41672 c -0.4466,-0.02111 -1.693633,-0.187185 -2.180313,-0.290373 -0.70017,-0.148452 -1.312631,-0.314543 -1.657948,-0.449612 -0.482839,-0.18886 -0.75885,-0.308119 -0.931176,-0.402346 -0.7637236,-0.4176 -0.8688198,-0.578291 -0.373166,-0.570567 0.265592,0.0041 0.312842,0.02277 0.777257,0.306607 0.271961,0.166209 0.50641,0.302199 0.520998,0.302199 0.01459,0 0.154788,0.0587 0.311556,0.130431 0.242436,0.110939 0.607809,0.241633 1.287568,0.460567 0.07672,0.02471 0.1731,0.04493 0.214173,0.04493 0.04107,0 0.162265,0.02798 0.269314,0.06219 0.215629,0.06889 1.206372,0.223379 1.943297,0.303016 0.262246,0.02834 0.808044,0.04536 1.212886,0.03781 0.404842,-0.0075 0.750083,2.72e-4 0.767203,0.01741 0.01711,0.01712 -0.02788,0.03048 -0.100017,0.02968 -0.07213,-7.94e-4 -0.499073,0.0061 -0.948763,0.01528 -0.44969,0.0092 -0.950481,0.01045 -1.112869,0.0028 z m 2.259806,-0.08944 c 0.03123,-0.0126 0.08233,-0.0126 0.113557,0 0.03123,0.0126 0.0056,0.02291 -0.05678,0.02291 -0.06245,0 -0.088,-0.01031 -0.05678,-0.02291 z m 0.261183,-0.01534 c -0.01544,-0.02498 -0.0064,-0.04542 0.02003,-0.04542 0.02645,0 0.04811,0.02044 0.04811,0.04542 0,0.02498 -0.009,0.04542 -0.02003,0.04542 -0.01102,0 -0.03266,-0.02045 -0.04811,-0.04542 z M 37.135462,40.881108 c -0.03044,-0.01234 -0.06805,-0.09018 -0.08358,-0.172975 -0.02362,-0.125932 0.02024,-0.246069 0.268273,-0.734822 0.163084,-0.321353 0.357524,-0.719297 0.432087,-0.884319 0.177365,-0.392544 0.545651,-1.410335 0.596363,-1.648109 0.0219,-0.102707 0.07126,-0.319603 0.109667,-0.481991 0.03841,-0.162388 0.104072,-0.509876 0.145907,-0.772195 0.04184,-0.262319 0.09605,-0.502494 0.120463,-0.533722 0.07349,-0.094 0.213418,-0.06443 0.268638,0.05676 0.13829,0.30351 -0.238795,2.04708 -0.687668,3.179641 -0.138102,0.348457 -0.676095,1.474553 -0.726981,1.521678 -0.01349,0.0125 -0.07091,0.11778 -0.127623,0.233973 -0.08241,0.168856 -0.197262,0.28805 -0.252561,0.262097 -0.0042,-0.002 -0.03255,-0.01368 -0.06298,-0.02602 z m -3.32869,-0.09656 c 0,-0.03121 0.01973,-0.09225 0.04384,-0.135634 0.02412,-0.04338 0.178517,-0.365041 0.343123,-0.714799 0.352746,-0.74953 0.988199,-2.034271 1.022249,-2.066757 0.0131,-0.01249 0.07598,-0.124914 0.139747,-0.249827 0.196796,-0.3855 0.379159,-0.701114 0.803734,-1.391018 0.68123,-1.106947 0.940742,-1.5948 1.160589,-2.181771 0.229767,-0.613457 0.324771,-1.081572 0.510207,-2.513922 0.17023,-1.314913 0.209694,-1.458899 0.37206,-1.35744 0.04324,0.02703 0.107885,0.10063 0.143635,0.16356 0.05749,0.101198 0.05339,0.179418 -0.03546,0.676862 -0.05525,0.309342 -0.140712,0.756835 -0.189913,0.994428 -0.0492,0.237592 -0.08946,0.470861 -0.08946,0.518374 0,0.04752 -0.03256,0.200607 -0.07234,0.340209 -0.03979,0.139601 -0.09384,0.335581 -0.120108,0.435512 -0.170716,0.649409 -0.583616,1.598528 -0.869064,1.997679 -0.05323,0.07443 -0.117217,0.17095 -0.1422,0.214489 -0.07672,0.133705 -0.503177,0.799468 -0.932633,1.455986 -0.22479,0.343638 -0.473153,0.742227 -0.55192,0.885752 -0.07877,0.143526 -0.194068,0.352937 -0.256224,0.46536 -0.06216,0.112422 -0.375555,0.72535 -0.69644,1.362061 -0.320885,0.636711 -0.583428,1.132114 -0.583428,1.100896 z"
       id="path1784" />
  </g>
</svg>
